<svg xmlns="http://www.w3.org/2000/svg" xmlns:xlink="http://www.w3.org/1999/xlink" viewBox="0 0 16.66 16.11"><defs><style>#soc-git-icon{fill:url(#linear-gradient-git);}</style><linearGradient id="linear-gradient-git" x1="1.74" y1="3.57" x2="15.08" y2="13.07" gradientUnits="userSpaceOnUse"><stop offset="0" stop-color="#e63480"/><stop offset="1" stop-color="#8518af"/></linearGradient></defs><title>GitHub</title><g id="Layer_2" data-name="Layer 2"><g id="Layer_1-2" data-name="Layer 1"><path id="soc-git-icon" d="M9.86,11.92c.36-.07.7-.12,1-.21A3.21,3.21,0,0,0,13.18,10a4.54,4.54,0,0,0,.31-3.16,2.77,2.77,0,0,0-.61-1.12.26.26,0,0,1-.06-.28,2.91,2.91,0,0,0-.1-1.92.26.26,0,0,0-.2-.13,2.42,2.42,0,0,0-1.12.29c-.31.15-.6.33-.9.49a.36.36,0,0,1-.23,0,8.17,8.17,0,0,0-3.92,0,.39.39,0,0,1-.27-.06,4.91,4.91,0,0,0-1.73-.75H4.31c-.33,0-.37,0-.46.29a3,3,0,0,0,0,1.81.21.21,0,0,1,0,.17,3.48,3.48,0,0,0-.73,3,5.26,5.26,0,0,0,.29,1.13,3.2,3.2,0,0,0,2.38,1.95c.34.09.68.14,1,.21a2,2,0,0,0-.49,1s-.07.09-.12.11a1.73,1.73,0,0,1-2.3-.71,1.68,1.68,0,0,0-1.12-.84,1,1,0,0,0-.39,0c-.18,0-.2.13-.08.26a.86.86,0,0,0,.19.17,2.27,2.27,0,0,1,.93,1.15,1.81,1.81,0,0,0,1.67,1.16,10.54,10.54,0,0,0,1.18,0c0,.51,0,1,0,1.57,0,.27-.3.4-.61.29a7.5,7.5,0,0,1-2-1A8,8,0,0,1,0,7.83,8.22,8.22,0,0,1,6.74.15,8.26,8.26,0,0,1,11,16.07c-.41.14-.65,0-.65-.47q0-1,0-2.08A2.18,2.18,0,0,0,9.86,11.92Z"/></g></g></svg>