<svg width="17" height="17" viewBox="0 0 17 17" fill="none" xmlns="http://www.w3.org/2000/svg">
<defs><style>#soc-gt-icon{fill:url(#linear-gradient-gt);}</style><linearGradient id="linear-gradient-gt" x1="0.43" y1="-0.29" x2="12" y2="24" gradientUnits="userSpaceOnUse"><stop offset="0" stop-color="#e63480"/><stop offset="1" stop-color="#8518af"/></linearGradient></defs>
<path id="soc-gt-icon" fill-rule="evenodd" clip-rule="evenodd" d="M8.5 0C3.80658 0 0 3.80517 0 8.5C0 13.1941 3.80658 17 8.5 17C13.1941 17 17 13.1941 17 8.5C17 3.80517 13.1941 0 8.5 0ZM10.7837 12.6586C10.9168 12.7528 11.0882 12.7762 11.2412 12.7188C11.3935 12.6607 11.5062 12.5297 11.5402 12.371C11.8993 10.6838 12.7705 6.41254 13.0971 4.87829C13.1219 4.76212 13.0808 4.64171 12.9901 4.5645C12.8988 4.48729 12.7727 4.46533 12.6608 4.50642C10.9282 5.14817 5.59229 7.14992 3.41133 7.95671C3.27321 8.00842 3.18325 8.14087 3.1875 8.2875C3.19246 8.43342 3.29092 8.56021 3.43258 8.60271C4.41079 8.89525 5.69429 9.30254 5.69429 9.30254C5.69429 9.30254 6.29425 11.1145 6.60662 12.0353C6.64629 12.1515 6.73696 12.2421 6.85596 12.2733C6.97567 12.3045 7.10246 12.2719 7.19171 12.1876C7.69392 11.7137 8.47025 10.9806 8.47025 10.9806C8.47025 10.9806 9.94642 12.0622 10.7837 12.6586V12.6586ZM6.23404 9.07304L6.92821 11.3617L7.08262 9.91242C7.08262 9.91242 9.76225 7.49487 11.2908 6.11717C11.3355 6.07679 11.3411 6.00879 11.3043 5.96133C11.2675 5.91388 11.1995 5.90254 11.1492 5.93512C9.37833 7.06562 6.23404 9.07304 6.23404 9.07304V9.07304Z" fill="url(#paint0_linear_709_43)"/>
</svg>
