<svg xmlns="http://www.w3.org/2000/svg" xmlns:xlink="http://www.w3.org/1999/xlink" viewBox="0 0 18.99 11.16"><defs><style>#soc-vk-icon{fill:url(#linear-gradient-vk);}</style><linearGradient id="linear-gradient-vk" x1="2.55" y1="-0.69" x2="19.22" y2="9.31" gradientUnits="userSpaceOnUse"><stop offset="0" stop-color="#e63480"/><stop offset="1" stop-color="#8518af"/></linearGradient></defs><title>Vkontakte</title><g id="Layer_2" data-name="Layer 2"><g id="Layer_1-2" data-name="Layer 1"><path id="soc-vk-icon" d="M15.77,5.43S18.27,1.9,18.52.74c.08-.41-.1-.65-.53-.65H15.82A.79.79,0,0,0,15,.62a19.66,19.66,0,0,1-2.6,4.08c-.46.51-.69.66-.94.66s-.3-.17-.3-.63v-4c0-.56-.07-.73-.53-.73H7.14a.38.38,0,0,0-.43.33v0c0,.53.81.65.81,2.09v3c0,.6,0,.83-.31.83C6.46,6.28,4.69,3.71,3.7.8,3.5.2,3.29,0,2.7,0H.55A.52.52,0,0,0,0,.53s0,0,0,0c0,.58.68,3.26,3.35,6.86,1.79,2.42,4.14,3.73,6.26,3.73,1.29,0,1.61-.22,1.61-.76V8.48c0-.46.18-.66.45-.66s.82.1,2,1.31c1.46,1.39,1.56,2,2.35,2h2.44c.25,0,.48-.12.48-.53a6.61,6.61,0,0,0-1.81-2.68c-.45-.6-1.18-1.24-1.41-1.54a.69.69,0,0,1,0-.91Z"/></g></g></svg>