<svg xmlns="http://www.w3.org/2000/svg" xmlns:xlink="http://www.w3.org/1999/xlink" viewBox="0 0 16.54 13.48"><defs><style>#soc-tw-icon{fill:url(#linear-gradient-tw);}</style><linearGradient id="linear-gradient-tw" y1="6.74" x2="16.54" y2="6.74" gradientUnits="userSpaceOnUse"><stop offset="0" stop-color="#e63480"/><stop offset="1" stop-color="#8518af"/></linearGradient></defs><title>Twitter</title><g id="Layer_2" data-name="Layer 2"><g id="Layer_1-2" data-name="Layer 1"><path id="soc-tw-icon" d="M0,12a6.91,6.91,0,0,0,5-1.42A3.46,3.46,0,0,1,1.83,8.21l.77,0a2.56,2.56,0,0,0,.75-.12,3.43,3.43,0,0,1-2-1.2A3.35,3.35,0,0,1,.64,4.75a3.35,3.35,0,0,0,1.52.41A3.42,3.42,0,0,1,.75,3.1,3.37,3.37,0,0,1,1.11.63a9.75,9.75,0,0,0,7,3.56c0-.1,0-.18,0-.26a3.32,3.32,0,0,1,.53-2.41A3.26,3.26,0,0,1,10.76.07,3.33,3.33,0,0,1,13.89,1a.13.13,0,0,0,.13,0,6.86,6.86,0,0,0,2-.77l0,0h0a3.35,3.35,0,0,1-.57,1.05,3.7,3.7,0,0,1-.89.79,6.93,6.93,0,0,0,1.91-.5l0,.06A6.85,6.85,0,0,1,14.93,3.3a.15.15,0,0,0-.07.14c0,.32,0,.65,0,1a9.32,9.32,0,0,1-.31,1.85,10,10,0,0,1-2,3.86,9.1,9.1,0,0,1-4.53,3,9.77,9.77,0,0,1-1.52.31,10.19,10.19,0,0,1-1.69.07A9.6,9.6,0,0,1,0,12Z"/></g></g></svg>