<svg xmlns="http://www.w3.org/2000/svg" xmlns:xlink="http://www.w3.org/1999/xlink" viewBox="0 0 9.33 19.98"><defs><style>#soc-fb-icon{fill:url(#linear-gradient-fb);}</style><linearGradient id="linear-gradient-fb" x1="0.43" y1="-0.29" x2="11.77" y2="21.04" gradientUnits="userSpaceOnUse"><stop offset="0" stop-color="#e63480"/><stop offset="1" stop-color="#8518af"/></linearGradient></defs><title>Facebook</title><g id="Layer_2" data-name="Layer 2"><g id="Layer_1-2" data-name="Layer 1"><path id="soc-fb-icon" d="M9.29,0V3.36a.16.16,0,0,1-.16.16h-2a1.77,1.77,0,0,0-.45.08.78.78,0,0,0-.46.73c0,.74,0,1.47,0,2.21,0,.13.08.1.15.1H9.22c.1,0,.12,0,.11.13L9,10c0,.12-.09.09-.15.09H6.44a.16.16,0,0,0-.17.15h0V20H2.5V10.12a.18.18,0,0,0-.18-.18H.16A.16.16,0,0,1,0,9.78V6.64a.16.16,0,0,1,.16-.16H2.35a.16.16,0,0,0,.16-.15V3.51A4.92,4.92,0,0,1,3,1.57,2.74,2.74,0,0,1,4.6.33,5,5,0,0,1,5.69.09.21.21,0,0,0,5.86,0Z"/></g></g></svg>