<svg xmlns="http://www.w3.org/2000/svg" xmlns:xlink="http://www.w3.org/1999/xlink" viewBox="0 0 20.08 14.13"><defs><style>#soc-yt-icon{fill:url(#linear-gradient-yt);}</style><linearGradient id="linear-gradient-yt" x1="2.54" y1="3.21" x2="18.37" y2="11.37" gradientUnits="userSpaceOnUse"><stop offset="0" stop-color="#e63480"/><stop offset="1" stop-color="#8518af"/></linearGradient></defs><title>Youtube</title><g id="Layer_2" data-name="Layer 2"><g id="Layer_1-2" data-name="Layer 1"><path id="soc-yt-icon" d="M20.08,5.54V8.62s0,0,0,0v.39c0,.13,0,.43,0,.64s0,.59-.07.87a5.92,5.92,0,0,1-.3,1.53,2.49,2.49,0,0,1-2.22,1.78c-.69.09-1.39.1-2.08.14-1.11.05-2.22.08-3.32.09H10.9s-.08,0-.09,0H9.63c0-.05,0,0-.07,0H9l-1.87,0C6.06,14.07,5,14,3.87,14a9.71,9.71,0,0,1-1.51-.15,2.37,2.37,0,0,1-1.9-1.65,6.59,6.59,0,0,1-.31-1.5C.09,10,0,9.24,0,8.53c0-1.34,0-2.68.05-4,0-.47.07-.93.12-1.4a5.19,5.19,0,0,1,.4-1.34A2.41,2.41,0,0,1,2.2.35a4.93,4.93,0,0,1,1-.13c.31,0,.59,0,.92-.06L5,.12C5.88.08,6.73.06,7.6,0h.65s0,0,0,0h3.44c0,.07.06,0,.09,0l1.92,0c.49,0,1,0,1.47.06a4,4,0,0,0,.65,0h0a3.44,3.44,0,0,1,.55,0c.18,0,.31,0,.46,0l.46,0a3,3,0,0,1,.51.1,2.52,2.52,0,0,1,.9.47,2.27,2.27,0,0,1,.4.4,3.1,3.1,0,0,1,.45.94,6,6,0,0,1,.21.8c0,.25.06.51.08.76s0,.59.07.86,0,.59,0,.87C20,5.49,20,5.53,20.08,5.54ZM13.37,6.88,8,4.06V9.67Z"/></g></g></svg>